master.ufo
<glyph name="p" format="1">
	<unicode hex="0070"/>
	<advance width="560"/>
	<outline>
		<contour>
			<point x="168" y="42" type="line"/>
			<point x="170" y="42" type="line"/>
			<point x="190" y="8"/>
			<point x="226" y="-12"/>
			<point x="264" y="-12" type="curve" smooth="yes"/>
			<point x="402" y="-12"/>
			<point x="530" y="138"/>
			<point x="530" y="328" type="curve" smooth="yes"/>
			<point x="530" y="446"/>
			<point x="478" y="512"/>
			<point x="390" y="512" type="curve" smooth="yes"/>
			<point x="342" y="512"/>
			<point x="288" y="486"/>
			<point x="244" y="446" type="curve"/>
			<point x="242" y="446" type="line"/>
			<point x="238" y="500" type="line"/>
			<point x="108" y="500" type="line"/>
			<point x="-28" y="-176" type="line"/>
			<point x="132" y="-176" type="line"/>
			<point x="156" y="-52" type="line"/>
		</contour>
		<contour>
			<point x="318" y="382" type="curve" smooth="yes"/>
			<point x="346" y="382"/>
			<point x="364" y="360"/>
			<point x="364" y="308" type="curve" smooth="yes"/>
			<point x="364" y="196"/>
			<point x="310" y="118"/>
			<point x="252" y="118" type="curve" smooth="yes"/>
			<point x="232" y="118"/>
			<point x="210" y="130"/>
			<point x="200" y="156" type="curve"/>
			<point x="234" y="326" type="line"/>
			<point x="258" y="370"/>
			<point x="292" y="382"/>
		</contour>
		<contour>
			<point name="aboveLC" x="366" y="522" type="move"/>
		</contour>
		<contour>
			<point name="belowLC" x="44" y="-218" type="move"/>
		</contour>
	</outline>
</glyph>
<glyph name="ringcmb" format="1">
	<unicode hex="030A"/>
	<outline>
		<contour>
			<point x="118" y="570" type="curve" smooth="yes"/>
			<point x="207" y="570"/>
			<point x="272" y="620"/>
			<point x="272" y="686" type="curve" smooth="yes"/>
			<point x="272" y="744"/>
			<point x="222" y="778"/>
			<point x="150" y="778" type="curve" smooth="yes"/>
			<point x="61" y="778"/>
			<point x="-4" y="728"/>
			<point x="-4" y="662" type="curve" smooth="yes"/>
			<point x="-4" y="604"/>
			<point x="47" y="570"/>
		</contour>
		<contour>
			<point x="128" y="630" type="curve" smooth="yes"/>
			<point x="106" y="630"/>
			<point x="96" y="646"/>
			<point x="96" y="666" type="curve" smooth="yes"/>
			<point x="96" y="694"/>
			<point x="116" y="718"/>
			<point x="140" y="718" type="curve" smooth="yes"/>
			<point x="162" y="718"/>
			<point x="172" y="700"/>
			<point x="172" y="682" type="curve" smooth="yes"/>
			<point x="172" y="654"/>
			<point x="152" y="630"/>
		</contour>
		<contour>
			<point name="_aboveLC" x="114" y="522" type="move"/>
		</contour>
	</outline>
</glyph>
<glyph name="f.sups" format="1">
	<unicode hex="1DA0"/>
	<advance width="233"/>
	<outline>
		<contour>
			<point x="56" y="368" type="line"/>
			<point x="167" y="368" type="line"/>
			<point x="237" y="709" type="line" smooth="yes"/>
			<point x="244" y="745"/>
			<point x="256" y="757"/>
			<point x="279" y="757" type="curve" smooth="yes"/>
			<point x="289" y="757"/>
			<point x="302" y="752"/>
			<point x="309" y="748" type="curve"/>
			<point x="343" y="824" type="line"/>
			<point x="320" y="836"/>
			<point x="293" y="843"/>
			<point x="266" y="843" type="curve" smooth="yes"/>
			<point x="179" y="843"/>
			<point x="140" y="782"/>
			<point x="126" y="713" type="curve" smooth="yes"/>
		</contour>
		<contour>
			<point x="64" y="614" type="line"/>
			<point x="272" y="614" type="line"/>
			<point x="290" y="700" type="line"/>
			<point x="130" y="700" type="line"/>
			<point x="78" y="694" type="line"/>
		</contour>
	</outline>
</glyph>
<glyph name="Euro" format="1">
	<unicode hex="20AC"/>
	<advance width="520"/>
	<outline>
		<contour>
			<point x="294" y="-12" type="curve" smooth="yes"/>
			<point x="348" y="-12"/>
			<point x="414" y="6"/>
			<point x="484" y="66" type="curve"/>
			<point x="410" y="160" type="line"/>
			<point x="384" y="134"/>
			<point x="356" y="116"/>
			<point x="328" y="116" type="curve" smooth="yes"/>
			<point x="266" y="116"/>
			<point x="236" y="166"/>
			<point x="236" y="252" type="curve" smooth="yes"/>
			<point x="236" y="398"/>
			<point x="288" y="528"/>
			<point x="390" y="528" type="curve" smooth="yes"/>
			<point x="416" y="528"/>
			<point x="432" y="512"/>
			<point x="446" y="482" type="curve"/>
			<point x="560" y="558" type="line"/>
			<point x="526" y="616"/>
			<point x="480" y="656"/>
			<point x="406" y="656" type="curve" smooth="yes"/>
			<point x="226" y="656"/>
			<point x="76" y="490"/>
			<point x="76" y="242" type="curve" smooth="yes"/>
			<point x="76" y="78"/>
			<point x="158" y="-12"/>
		</contour>
		<contour>
			<point x="14" y="218" type="line"/>
			<point x="380" y="218" type="line"/>
			<point x="396" y="298" type="line"/>
			<point x="102" y="298" type="line"/>
			<point x="30" y="292" type="line"/>
		</contour>
		<contour>
			<point x="40" y="346" type="line"/>
			<point x="444" y="346" type="line"/>
			<point x="460" y="426" type="line"/>
			<point x="128" y="426" type="line"/>
			<point x="56" y="420" type="line"/>
		</contour>
	</outline>
</glyph>
<glyph name="rupeeindian" format="1">
	<unicode hex="20B9"/>
	<advance width="520"/>
	<outline>
		<contour>
			<point x="56" y="200" type="line"/>
			<point x="118" y="200" type="line" smooth="yes"/>
			<point x="272" y="200"/>
			<point x="424" y="284"/>
			<point x="424" y="464" type="curve" smooth="yes"/>
			<point x="424" y="504"/>
			<point x="412" y="540"/>
			<point x="390" y="564" type="curve"/>
			<point x="512" y="564" type="line"/>
			<point x="528" y="644" type="line"/>
			<point x="144" y="644" type="line"/>
			<point x="118" y="516" type="line"/>
			<point x="178" y="516" type="line" smooth="yes"/>
			<point x="236" y="516"/>
			<point x="268" y="500"/>
			<point x="268" y="450" type="curve" smooth="yes"/>
			<point x="268" y="374"/>
			<point x="214" y="326"/>
			<point x="130" y="326" type="curve" smooth="yes"/>
			<point x="80" y="326" type="line"/>
		</contour>
		<contour>
			<point x="94" y="388" type="line"/>
			<point x="478" y="388" type="line"/>
			<point x="494" y="468" type="line"/>
			<point x="182" y="468" type="line"/>
			<point x="108" y="462" type="line"/>
		</contour>
		<contour>
			<point x="220" y="0" type="line"/>
			<point x="388" y="0" type="line"/>
			<point x="268" y="310" type="line"/>
			<point x="144" y="232" type="line"/>
		</contour>
	</outline>
</glyph>
<glyph name="fisheye" format="1">
	<unicode hex="25C9"/>
	<advance width="870"/>
	<outline>
		<contour>
			<point x="450" y="-75" type="curve" smooth="yes"/>
			<point x="681" y="-75"/>
			<point x="855" y="95"/>
			<point x="855" y="330" type="curve" smooth="yes"/>
			<point x="855" y="565"/>
			<point x="681" y="735"/>
			<point x="450" y="735" type="curve" smooth="yes"/>
			<point x="219" y="735"/>
			<point x="45" y="565"/>
			<point x="45" y="330" type="curve" smooth="yes"/>
			<point x="45" y="95"/>
			<point x="219" y="-75"/>
		</contour>
		<contour>
			<point x="450" y="25" type="curve" smooth="yes"/>
			<point x="280" y="25"/>
			<point x="155" y="153"/>
			<point x="155" y="330" type="curve" smooth="yes"/>
			<point x="155" y="507"/>
			<point x="280" y="635"/>
			<point x="450" y="635" type="curve" smooth="yes"/>
			<point x="620" y="635"/>
			<point x="745" y="507"/>
			<point x="745" y="330" type="curve" smooth="yes"/>
			<point x="745" y="153"/>
			<point x="620" y="25"/>
		</contour>
		<contour>
			<point x="450" y="110" type="curve" smooth="yes"/>
			<point x="570" y="110"/>
			<point x="660" y="206"/>
			<point x="660" y="330" type="curve" smooth="yes"/>
			<point x="660" y="453"/>
			<point x="570" y="550"/>
			<point x="450" y="550" type="curve" smooth="yes"/>
			<point x="330" y="550"/>
			<point x="240" y="453"/>
			<point x="240" y="330" type="curve" smooth="yes"/>
			<point x="240" y="207"/>
			<point x="330" y="110"/>
		</contour>
	</outline>
</glyph>
<glyph name="C" format="1">
	<advance width="574"/>
	<outline>
		<contour>
			<point x="310" y="-12" type="curve" smooth="yes"/>
			<point x="402" y="-12"/>
			<point x="474" y="36"/>
			<point x="510" y="70" type="curve"/>
			<point x="444" y="172" type="line"/>
			<point x="414" y="146"/>
			<point x="378" y="126"/>
			<point x="344" y="126" type="curve" smooth="yes"/>
			<point x="256" y="126"/>
			<point x="220" y="180"/>
			<point x="220" y="274" type="curve" smooth="yes"/>
			<point x="220" y="414"/>
			<point x="304" y="524"/>
			<point x="398" y="524" type="curve" smooth="yes"/>
			<point x="428" y="524"/>
			<point x="452" y="508"/>
			<point x="476" y="472" type="curve"/>
			<point x="584" y="556" type="line"/>
			<point x="546" y="624"/>
			<point x="482" y="662"/>
			<point x="406" y="662" type="curve" smooth="yes"/>
			<point x="214" y="662"/>
			<point x="56" y="496"/>
			<point x="56" y="264" type="curve" smooth="yes"/>
			<point x="56" y="88"/>
			<point x="158" y="-12"/>
		</contour>
		<contour>
			<point name="aboveUC" x="450" y="682" type="move"/>
		</contour>
		<contour>
			<point name="belowLC" x="288" y="-22" type="move"/>
		</contour>
		<contour>
			<point name="baseLC" x="294" y="0" type="move"/>
		</contour>
	</outline>
</glyph>
<glyph name="Delta.math" format="1">
	<advance width="632"/>
	<outline>
		<contour>
			<point x="-4" y="0" type="line"/>
			<point x="548" y="0" type="line"/>
			<point x="566" y="96" type="line"/>
			<point x="498" y="650" type="line"/>
			<point x="304" y="650" type="line"/>
			<point x="14" y="96" type="line"/>
		</contour>
		<contour>
			<point x="296" y="344" type="line" smooth="yes"/>
			<point x="324" y="406"/>
			<point x="346" y="466"/>
			<point x="372" y="530" type="curve"/>
			<point x="376" y="530" type="line"/>
			<point x="376" y="464"/>
			<point x="378" y="406"/>
			<point x="380" y="344" type="curve" smooth="yes"/>
			<point x="396" y="134" type="line"/>
			<point x="190" y="134" type="line"/>
		</contour>
	</outline>
</glyph>
<glyph name="K" format="1">
	<advance width="622"/>
	<outline>
		<contour>
			<point x="26" y="0" type="line"/>
			<point x="186" y="0" type="line"/>
			<point x="222" y="180" type="line"/>
			<point x="306" y="276" type="line"/>
			<point x="402" y="0" type="line"/>
			<point x="568" y="0" type="line"/>
			<point x="424" y="376" type="line"/>
			<point x="658" y="650" type="line"/>
			<point x="484" y="650" type="line"/>
			<point x="271" y="404" type="line"/>
			<point x="267" y="404" type="line"/>
			<point x="316" y="650" type="line"/>
			<point x="156" y="650" type="line"/>
		</contour>
		<contour>
			<point name="aboveUC" x="430" y="682" type="move"/>
		</contour>
		<contour>
			<point name="belowLC" x="298" y="-22" type="move"/>
		</contour>
	</outline>
</glyph>
<glyph name="Oslash" format="1">
	<advance width="670"/>
	<outline>
		<contour>
			<point x="58" y="-44" type="line"/>
			<point x="726" y="638" type="line"/>
			<point x="656" y="702" type="line"/>
			<point x="-12" y="20" type="line"/>
		</contour>
		<component base="O"/>
		<contour>
			<point name="aboveUC" x="440" y="682" type="move"/>
		</contour>
	</outline>
</glyph>
<glyph name="T" format="1">
	<advance width="540"/>
	<outline>
		<contour>
			<point x="142" y="0" type="line"/>
			<point x="302" y="0" type="line"/>
			<point x="404" y="516" type="line"/>
			<point x="568" y="516" type="line"/>
			<point x="594" y="650" type="line"/>
			<point x="106" y="650" type="line"/>
			<point x="80" y="516" type="line"/>
			<point x="244" y="516" type="line"/>
		</contour>
		<contour>
			<point name="aboveUC" x="366" y="682" type="move"/>
		</contour>
		<contour>
			<point name="belowLC" x="220" y="-22" type="move"/>
		</contour>
		<contour>
			<point name="baseLC" x="226" y="0" type="move"/>
		</contour>
	</outline>
</glyph>
<glyph name="Thorn" format="1">
	<advance width="608"/>
	<outline>
		<contour>
			<point x="26" y="0" type="line"/>
			<point x="184" y="0" type="line"/>
			<point x="208" y="122" type="line"/>
			<point x="278" y="122" type="line" smooth="yes"/>
			<point x="440" y="122"/>
			<point x="586" y="192"/>
			<point x="586" y="382" type="curve" smooth="yes"/>
			<point x="586" y="512"/>
			<point x="492" y="560"/>
			<point x="374" y="560" type="curve" smooth="yes"/>
			<point x="296" y="560" type="line"/>
			<point x="316" y="660" type="line"/>
			<point x="156" y="660" type="line"/>
		</contour>
		<contour>
			<point x="234" y="248" type="line"/>
			<point x="270" y="434" type="line"/>
			<point x="342" y="434" type="line" smooth="yes"/>
			<point x="396" y="434"/>
			<point x="428" y="410"/>
			<point x="428" y="358" type="curve" smooth="yes"/>
			<point x="428" y="286"/>
			<point x="380" y="248"/>
			<point x="296" y="248" type="curve" smooth="yes"/>
		</contour>
	</outline>
</glyph>
<glyph name="Z" format="1">
	<advance width="530"/>
	<outline>
		<contour>
			<point x="-6" y="0" type="line"/>
			<point x="452" y="0" type="line"/>
			<point x="480" y="134" type="line"/>
			<point x="216" y="134" type="line"/>
			<point x="542" y="554" type="line"/>
			<point x="562" y="650" type="line"/>
			<point x="130" y="650" type="line"/>
			<point x="104" y="516" type="line"/>
			<point x="344" y="516" type="line"/>
			<point x="14" y="96" type="line"/>
		</contour>
		<contour>
			<point name="aboveUC" x="368" y="682" type="move"/>
		</contour>
		<contour>
			<point name="belowLC" x="218" y="-30" type="move"/>
		</contour>
	</outline>
</glyph>
<glyph name="a.supa" format="1">
	<advance width="350"/>
	<outline>
		<contour>
			<point x="52" y="444" type="curve" smooth="yes"/>
			<point x="52" y="394"/>
			<point x="88" y="360"/>
			<point x="136" y="360" type="curve" smooth="yes"/>
			<point x="170" y="360"/>
			<point x="204" y="378"/>
			<point x="224" y="400" type="curve"/>
			<point x="228" y="400" type="line"/>
			<point x="232" y="368" type="line"/>
			<point x="320" y="368" type="line"/>
			<point x="355" y="545" type="line" smooth="yes"/>
			<point x="359" y="564"/>
			<point x="361" y="580"/>
			<point x="361" y="594" type="curve" smooth="yes"/>
			<point x="361" y="672"/>
			<point x="316" y="707"/>
			<point x="238" y="707" type="curve" smooth="yes"/>
			<point x="192" y="707"/>
			<point x="146" y="693"/>
			<point x="104" y="674" type="curve"/>
			<point x="138" y="600" type="line"/>
			<point x="170" y="614"/>
			<point x="187" y="622"/>
			<point x="211" y="622" type="curve" smooth="yes"/>
			<point x="235" y="622"/>
			<point x="250" y="611"/>
			<point x="250" y="582" type="curve" smooth="yes"/>
			<point x="250" y="580"/>
			<point x="250" y="579"/>
			<point x="250" y="576" type="curve"/>
			<point x="141" y="573"/>
			<point x="52" y="540"/>
		</contour>
		<contour>
			<point x="238" y="510" type="curve"/>
			<point x="228" y="463" type="line"/>
			<point x="216" y="452"/>
			<point x="204" y="442"/>
			<point x="188" y="442" type="curve" smooth="yes"/>
			<point x="170" y="442"/>
			<point x="160" y="452"/>
			<point x="160" y="466" type="curve" smooth="yes"/>
			<point x="160" y="489"/>
			<point x="180" y="509"/>
		</contour>
	</outline>
</glyph>
<glyph name="a.sups" format="1">
	<advance width="369"/>
	<outline>
		<contour>
			<point x="74" y="482" type="curve" smooth="yes"/>
			<point x="74" y="404"/>
			<point x="110" y="360"/>
			<point x="168" y="360" type="curve" smooth="yes"/>
			<point x="200" y="360"/>
			<point x="238" y="378"/>
			<point x="266" y="408" type="curve"/>
			<point x="270" y="408" type="line"/>
			<point x="270" y="368" type="line"/>
			<point x="360" y="368" type="line"/>
			<point x="426" y="700" type="line"/>
			<point x="336" y="700" type="line"/>
			<point x="320" y="666" type="line"/>
			<point x="316" y="666" type="line"/>
			<point x="304" y="690"/>
			<point x="280" y="708"/>
			<point x="252" y="708" type="curve" smooth="yes"/>
			<point x="160" y="708"/>
			<point x="74" y="608"/>
		</contour>
		<contour>
			<point x="216" y="450" type="curve" smooth="yes"/>
			<point x="200" y="450"/>
			<point x="188" y="464"/>
			<point x="188" y="496" type="curve" smooth="yes"/>
			<point x="188" y="568"/>
			<point x="224" y="618"/>
			<point x="260" y="618" type="curve" smooth="yes"/>
			<point x="272" y="618"/>
			<point x="286" y="610"/>
			<point x="292" y="594" type="curve"/>
			<point x="274" y="492" type="line"/>
			<point x="256" y="458"/>
			<point x="234" y="450"/>
		</contour>
	</outline>
</glyph>
<glyph name="acutecmb.cap" format="1">
	<outline>
		<contour>
			<point x="92" y="680" type="line"/>
			<point x="308" y="782" type="line"/>
			<point x="238" y="899" type="line"/>
			<point x="31" y="772" type="line"/>
		</contour>
		<contour>
			<point name="_aboveUC" x="136" y="682" type="move"/>
		</contour>
	</outline>
</glyph>
<glyph name="bar" format="1">
	<advance width="264"/>
	<outline>
		<contour>
			<point x="86" y="-250" type="line"/>
			<point x="184" y="-250" type="line"/>
			<point x="184" y="750" type="line"/>
			<point x="86" y="750" type="line"/>
		</contour>
	</outline>
</glyph>
<glyph name="c" format="1">
	<advance width="446"/>
	<outline>
		<contour>
			<point x="226" y="-12" type="curve" smooth="yes"/>
			<point x="306" y="-12"/>
			<point x="358" y="18"/>
			<point x="396" y="46" type="curve"/>
			<point x="330" y="144" type="line"/>
			<point x="312" y="130"/>
			<point x="292" y="116"/>
			<point x="262" y="116" type="curve" smooth="yes"/>
			<point x="214" y="116"/>
			<point x="190" y="148"/>
			<point x="190" y="198" type="curve" smooth="yes"/>
			<point x="190" y="300"/>
			<point x="244" y="384"/>
			<point x="316" y="384" type="curve" smooth="yes"/>
			<point x="340" y="384"/>
			<point x="356" y="374"/>
			<point x="374" y="356" type="curve"/>
			<point x="462" y="450" type="line"/>
			<point x="438" y="480"/>
			<point x="390" y="512"/>
			<point x="326" y="512" type="curve" smooth="yes"/>
			<point x="154" y="512"/>
			<point x="26" y="364"/>
			<point x="26" y="196" type="curve" smooth="yes"/>
			<point x="26" y="64"/>
			<point x="114" y="-12"/>
		</contour>
		<contour>
			<point name="aboveLC" x="324" y="522" type="move"/>
		</contour>
		<contour>
			<point name="belowLC" x="224" y="-22" type="move"/>
		</contour>
		<contour>
			<point name="baseLC" x="208" y="0" type="move"/>
		</contour>
	</outline>
</glyph>
<glyph name="commaabovecmb" format="1">
	<outline>
		<contour>
			<point x="76" y="544" type="line"/>
			<point x="166" y="570"/>
			<point x="206" y="628"/>
			<point x="206" y="696" type="curve" smooth="yes"/>
			<point x="206" y="734"/>
			<point x="184" y="758"/>
			<point x="148" y="758" type="curve" smooth="yes"/>
			<point x="114" y="758"/>
			<point x="84" y="732"/>
			<point x="84" y="692" type="curve" smooth="yes"/>
			<point x="84" y="664"/>
			<point x="108" y="644"/>
			<point x="132" y="644" type="curve" smooth="yes"/>
			<point x="148" y="644"/>
			<point x="160" y="650"/>
			<point x="172" y="660" type="curve"/>
			<point x="148" y="708" type="line"/>
			<point x="138" y="654" type="line"/>
			<point x="130" y="622"/>
			<point x="106" y="608"/>
			<point x="64" y="594" type="curve"/>
		</contour>
		<contour>
			<point name="_aboveLC" x="114" y="522" type="move"/>
		</contour>
	</outline>
</glyph>
<glyph name="dblgravecmb" format="1">
	<outline>
		<contour>
			<point x="-40" y="564" type="line"/>
			<point x="57" y="596" type="line"/>
			<point x="2" y="786" type="line"/>
			<point x="-121" y="746" type="line"/>
		</contour>
		<contour>
			<point x="150" y="564" type="line"/>
			<point x="247" y="596" type="line"/>
			<point x="192" y="786" type="line"/>
			<point x="69" y="746" type="line"/>
		</contour>
		<contour>
			<point name="_aboveLC" x="114" y="522" type="move"/>
		</contour>
	</outline>
</glyph>
<glyph name="dieresiscaron" format="1">
	<outline>
		<contour>
			<point x="80" y="744" type="line"/>
			<point x="216" y="744" type="line"/>
			<point x="322" y="836" type="line"/>
			<point x="276" y="886" type="line"/>
			<point x="164" y="824" type="line"/>
			<point x="160" y="824" type="line"/>
			<point x="68" y="886" type="line"/>
			<point x="6" y="836" type="line"/>
		</contour>
		<contour>
			<point x="6" y="566" type="curve" smooth="yes"/>
			<point x="50" y="566"/>
			<point x="82" y="602"/>
			<point x="82" y="644" type="curve" smooth="yes"/>
			<point x="82" y="674"/>
			<point x="60" y="696"/>
			<point x="26" y="696" type="curve" smooth="yes"/>
			<point x="-16" y="696"/>
			<point x="-48" y="662"/>
			<point x="-48" y="620" type="curve" smooth="yes"/>
			<point x="-48" y="590"/>
			<point x="-26" y="566"/>
		</contour>
		<contour>
			<point x="224" y="566" type="curve" smooth="yes"/>
			<point x="266" y="566"/>
			<point x="298" y="602"/>
			<point x="298" y="644" type="curve" smooth="yes"/>
			<point x="298" y="674"/>
			<point x="276" y="696"/>
			<point x="244" y="696" type="curve" smooth="yes"/>
			<point x="202" y="696"/>
			<point x="170" y="662"/>
			<point x="170" y="620" type="curve" smooth="yes"/>
			<point x="170" y="590"/>
			<point x="192" y="566"/>
		</contour>
		<contour>
			<point name="_aboveLC" x="114" y="522" type="move"/>
		</contour>
	</outline>
</glyph>
<glyph name="dotaccentcmb.cap" format="1">
	<outline>
		<contour>
			<point x="130" y="698" type="curve" smooth="yes"/>
			<point x="184" y="698"/>
			<point x="226" y="736"/>
			<point x="226" y="788" type="curve" smooth="yes"/>
			<point x="226" y="836"/>
			<point x="184" y="862"/>
			<point x="142" y="862" type="curve" smooth="yes"/>
			<point x="88" y="862"/>
			<point x="46" y="820"/>
			<point x="46" y="772" type="curve" smooth="yes"/>
			<point x="46" y="722"/>
			<point x="88" y="698"/>
		</contour>
		<contour>
			<point name="_aboveUC" x="136" y="682" type="move"/>
		</contour>
	</outline>
</glyph>
<glyph name="e" format="1">
	<advance width="502"/>
	<outline>
		<contour>
			<point x="26" y="204" type="curve" smooth="yes"/>
			<point x="26" y="70"/>
			<point x="112" y="-12"/>
			<point x="234" y="-12" type="curve" smooth="yes"/>
			<point x="316" y="-12"/>
			<point x="380" y="12"/>
			<point x="420" y="40" type="curve"/>
			<point x="364" y="140" type="line"/>
			<point x="342" y="124"/>
			<point x="308" y="108"/>
			<point x="280" y="108" type="curve" smooth="yes"/>
			<point x="222" y="108"/>
			<point x="178" y="136"/>
			<point x="176" y="202" type="curve"/>
			<point x="446" y="202" type="line"/>
			<point x="454" y="216"/>
			<point x="474" y="272"/>
			<point x="474" y="322" type="curve" smooth="yes"/>
			<point x="474" y="426"/>
			<point x="430" y="512"/>
			<point x="308" y="512" type="curve" smooth="yes"/>
			<point x="174" y="512"/>
			<point x="26" y="388"/>
		</contour>
		<contour>
			<point x="188" y="298" type="line"/>
			<point x="210" y="362"/>
			<point x="250" y="390"/>
			<point x="288" y="390" type="curve" smooth="yes"/>
			<point x="330" y="390"/>
			<point x="344" y="364"/>
			<point x="344" y="330" type="curve" smooth="yes"/>
			<point x="344" y="318"/>
			<point x="342" y="306"/>
			<point x="340" y="298" type="curve"/>
		</contour>
		<contour>
			<point name="aboveLC" x="326" y="522" type="move"/>
		</contour>
		<contour>
			<point name="belowLC" x="224" y="-22" type="move"/>
		</contour>
		<contour>
			<point name="ogonekLC" x="290" y="0" type="move"/>
		</contour>
	</outline>
</glyph>
<glyph name="e.sups" format="1">
	<advance width="336"/>
	<outline>
		<contour>
			<point x="50" y="504" type="curve" smooth="yes"/>
			<point x="50" y="415"/>
			<point x="108" y="360"/>
			<point x="193" y="360" type="curve" smooth="yes"/>
			<point x="229" y="360"/>
			<point x="271" y="370"/>
			<point x="309" y="391" type="curve"/>
			<point x="277" y="461" type="line"/>
			<point x="256" y="448"/>
			<point x="241" y="442"/>
			<point x="225" y="442" type="curve" smooth="yes"/>
			<point x="185" y="442"/>
			<point x="155" y="458"/>
			<point x="153" y="500" type="curve"/>
			<point x="332" y="500" type="line"/>
			<point x="338" y="510"/>
			<point x="351" y="547"/>
			<point x="351" y="580" type="curve" smooth="yes"/>
			<point x="351" y="650"/>
			<point x="322" y="708"/>
			<point x="240" y="708" type="curve" smooth="yes"/>
			<point x="150" y="708"/>
			<point x="50" y="625"/>
		</contour>
		<contour>
			<point x="161" y="566" type="line"/>
			<point x="176" y="606"/>
			<point x="202" y="624"/>
			<point x="226" y="624" type="curve" smooth="yes"/>
			<point x="253" y="624"/>
			<point x="261" y="607"/>
			<point x="261" y="586" type="curve" smooth="yes"/>
			<point x="261" y="578"/>
			<point x="260" y="572"/>
			<point x="259" y="566" type="curve"/>
		</contour>
	</outline>
</glyph>
<glyph name="egrave.sups" format="1">
  <advance width="336"/>
  <outline>
    <contour>
      <point x="274" y="742" type="line"/>
      <point x="344" y="792" type="line"/>
      <point x="258" y="924" type="line"/>
      <point x="164" y="856" type="line"/>
    </contour>
    <component base="e.sups"/>
  </outline>
</glyph>
<glyph name="figuredash" format="1">
	<advance width="520"/>
	<outline>
		<contour>
			<point x="34" y="202" type="line"/>
			<point x="466" y="202" type="line"/>
			<point x="486" y="304" type="line"/>
			<point x="54" y="304" type="line"/>
		</contour>
	</outline>
</glyph>
<glyph name="g.supa" format="1">
	<advance width="345"/>
	<outline>
		<contour>
			<point x="74" y="578" type="curve" smooth="yes"/>
			<point x="74" y="545"/>
			<point x="89" y="521"/>
			<point x="112" y="501" type="curve"/>
			<point x="112" y="498" type="line"/>
			<point x="84" y="485"/>
			<point x="62" y="460"/>
			<point x="62" y="432" type="curve" smooth="yes"/>
			<point x="62" y="413"/>
			<point x="69" y="397"/>
			<point x="80" y="387" type="curve"/>
			<point x="80" y="384" type="line"/>
			<point x="41" y="368"/>
			<point x="14" y="345"/>
			<point x="14" y="310" type="curve" smooth="yes"/>
			<point x="14" y="240"/>
			<point x="97" y="231"/>
			<point x="146" y="231" type="curve" smooth="yes"/>
			<point x="233" y="231"/>
			<point x="332" y="270"/>
			<point x="332" y="352" type="curve" smooth="yes"/>
			<point x="332" y="394"/>
			<point x="305" y="418"/>
			<point x="202" y="431" type="curve" smooth="yes"/>
			<point x="156" y="437"/>
			<point x="151" y="442"/>
			<point x="151" y="456" type="curve" smooth="yes"/>
			<point x="151" y="464"/>
			<point x="157" y="471"/>
			<point x="163" y="475" type="curve"/>
			<point x="169" y="474"/>
			<point x="182" y="473"/>
			<point x="193" y="473" type="curve" smooth="yes"/>
			<point x="280" y="473"/>
			<point x="341" y="519"/>
			<point x="341" y="593" type="curve" smooth="yes"/>
			<point x="341" y="602"/>
			<point x="341" y="609"/>
			<point x="339" y="618" type="curve"/>
			<point x="382" y="618" type="line"/>
			<point x="397" y="699" type="line"/>
			<point x="269" y="699" type="line"/>
			<point x="254" y="704"/>
			<point x="239" y="707"/>
			<point x="220" y="707" type="curve" smooth="yes"/>
			<point x="141" y="707"/>
			<point x="74" y="653"/>
		</contour>
		<contour>
			<point x="131" y="360" type="curve"/>
			<point x="148" y="356"/>
			<point x="161" y="353"/>
			<point x="170" y="352" type="curve" smooth="yes"/>
			<point x="195" y="349"/>
			<point x="222" y="343"/>
			<point x="222" y="325" type="curve" smooth="yes"/>
			<point x="222" y="307"/>
			<point x="196" y="298"/>
			<point x="157" y="298" type="curve" smooth="yes"/>
			<point x="121" y="298"/>
			<point x="108" y="308"/>
			<point x="108" y="329" type="curve" smooth="yes"/>
			<point x="108" y="342"/>
			<point x="120" y="351"/>
		</contour>
		<contour>
			<point x="218" y="633" type="curve" smooth="yes"/>
			<point x="236" y="633"/>
			<point x="247" y="620"/>
			<point x="247" y="596" type="curve" smooth="yes"/>
			<point x="247" y="568"/>
			<point x="231" y="538"/>
			<point x="204" y="538" type="curve" smooth="yes"/>
			<point x="186" y="538"/>
			<point x="175" y="551"/>
			<point x="175" y="575" type="curve" smooth="yes"/>
			<point x="175" y="603"/>
			<point x="191" y="633"/>
		</contour>
	</outline>
</glyph>
<glyph name="gravecmb.cap" format="1">
	<outline>
		<contour>
			<point x="158" y="670" type="line"/>
			<point x="248" y="748" type="line"/>
			<point x="92" y="907" type="line"/>
			<point x="-17" y="806" type="line"/>
		</contour>
		<contour>
			<point name="_aboveUC" x="136" y="682" type="move"/>
		</contour>
	</outline>
</glyph>
<glyph name="gravecmb" format="1">
	<outline>
		<contour>
			<point x="146" y="569" type="line"/>
			<point x="244" y="645" type="line"/>
			<point x="120" y="844" type="line"/>
			<point x="-16" y="742" type="line"/>
		</contour>
		<contour>
			<point name="_aboveLC" x="114" y="522" type="move"/>
		</contour>
	</outline>
</glyph>
<glyph name="h" format="1">
	<advance width="556"/>
	<outline>
		<contour>
			<point x="8" y="0" type="line"/>
			<point x="168" y="0" type="line"/>
			<point x="230" y="320" type="line"/>
			<point x="266" y="358"/>
			<point x="290" y="376"/>
			<point x="318" y="376" type="curve" smooth="yes"/>
			<point x="344" y="376"/>
			<point x="360" y="362"/>
			<point x="360" y="334" type="curve" smooth="yes"/>
			<point x="360" y="322"/>
			<point x="356" y="308"/>
			<point x="352" y="290" type="curve" smooth="yes"/>
			<point x="294" y="0" type="line"/>
			<point x="454" y="0" type="line"/>
			<point x="516" y="310" type="line" smooth="yes"/>
			<point x="522" y="334"/>
			<point x="524" y="360"/>
			<point x="524" y="382" type="curve" smooth="yes"/>
			<point x="524" y="468"/>
			<point x="488" y="512"/>
			<point x="406" y="512" type="curve" smooth="yes"/>
			<point x="346" y="512"/>
			<point x="294" y="482"/>
			<point x="254" y="446" type="curve"/>
			<point x="250" y="446" type="line"/>
			<point x="274" y="534" type="line"/>
			<point x="308" y="696" type="line"/>
			<point x="148" y="696" type="line"/>
		</contour>
		<contour>
			<point name="aboveLC" x="234" y="730" type="move"/>
		</contour>
		<contour>
			<point name="belowLC" x="238" y="-22" type="move"/>
		</contour>
	</outline>
</glyph>
<glyph name="j.sups" format="1">
	<advance width="187"/>
	<outline>
		<contour>
			<point x="14" y="236" type="curve" smooth="yes"/>
			<point x="96" y="236"/>
			<point x="134" y="289"/>
			<point x="148" y="358" type="curve" smooth="yes"/>
			<point x="216" y="700" type="line"/>
			<point x="104" y="700" type="line"/>
			<point x="38" y="368" type="line" smooth="yes"/>
			<point x="31" y="333"/>
			<point x="25" y="322"/>
			<point x="4" y="322" type="curve" smooth="yes"/>
			<point x="-5" y="322"/>
			<point x="-14" y="324"/>
			<point x="-24" y="328" type="curve"/>
			<point x="-57" y="251" type="line"/>
			<point x="-32" y="239"/>
			<point x="-10" y="236"/>
		</contour>
		<contour>
			<point x="176" y="740" type="curve" smooth="yes"/>
			<point x="212" y="740"/>
			<point x="242" y="768"/>
			<point x="242" y="800" type="curve" smooth="yes"/>
			<point x="242" y="834"/>
			<point x="214" y="850"/>
			<point x="184" y="850" type="curve" smooth="yes"/>
			<point x="148" y="850"/>
			<point x="118" y="822"/>
			<point x="118" y="790" type="curve" smooth="yes"/>
			<point x="118" y="756"/>
			<point x="146" y="740"/>
		</contour>
	</outline>
</glyph>
<glyph name="lira" format="1">
	<advance width="520"/>
	<outline>
		<contour>
			<point x="-4" y="0" type="line"/>
			<point x="442" y="0" type="line"/>
			<point x="466" y="134" type="line"/>
			<point x="240" y="134" type="line"/>
			<point x="242" y="138" type="line"/>
			<point x="282" y="190"/>
			<point x="296" y="236"/>
			<point x="296" y="306" type="curve" smooth="yes"/>
			<point x="296" y="332"/>
			<point x="290" y="368"/>
			<point x="290" y="394" type="curve" smooth="yes"/>
			<point x="290" y="490"/>
			<point x="332" y="528"/>
			<point x="380" y="528" type="curve" smooth="yes"/>
			<point x="410" y="528"/>
			<point x="428" y="514"/>
			<point x="450" y="486" type="curve"/>
			<point x="552" y="570" type="line"/>
			<point x="512" y="624"/>
			<point x="460" y="656"/>
			<point x="388" y="656" type="curve" smooth="yes"/>
			<point x="252" y="656"/>
			<point x="142" y="560"/>
			<point x="142" y="418" type="curve" smooth="yes"/>
			<point x="142" y="380"/>
			<point x="152" y="326"/>
			<point x="152" y="288" type="curve" smooth="yes"/>
			<point x="152" y="200"/>
			<point x="98" y="132"/>
			<point x="16" y="98" type="curve"/>
		</contour>
		<contour>
			<point x="68" y="342" type="line"/>
			<point x="422" y="342" type="line"/>
			<point x="438" y="422" type="line"/>
			<point x="156" y="422" type="line"/>
			<point x="84" y="416" type="line"/>
		</contour>
		<contour>
			<point x="42" y="214" type="line"/>
			<point x="394" y="214" type="line"/>
			<point x="410" y="294" type="line"/>
			<point x="130" y="294" type="line"/>
			<point x="58" y="288" type="line"/>
		</contour>
	</outline>
</glyph>
<glyph name="macronacute" format="1">
	<outline>
		<contour>
			<point x="-32" y="590" type="line"/>
			<point x="262" y="590" type="line"/>
			<point x="282" y="690" type="line"/>
			<point x="-12" y="690" type="line"/>
		</contour>
		<contour>
			<point x="154" y="719" type="line"/>
			<point x="277" y="830" type="line"/>
			<point x="198" y="896" type="line"/>
			<point x="98" y="764" type="line"/>
		</contour>
		<contour>
			<point name="_aboveLC" x="114" y="522" type="move"/>
		</contour>
	</outline>
</glyph>
<glyph name="parenleft" format="1">
	<advance width="344"/>
	<outline>
		<contour>
			<point x="112" y="-180" type="curve"/>
			<point x="214" y="-138" type="line"/>
			<point x="190" y="-68"/>
			<point x="180" y="38"/>
			<point x="180" y="120" type="curve" smooth="yes"/>
			<point x="180" y="308"/>
			<point x="240" y="498"/>
			<point x="380" y="688" type="curve"/>
			<point x="288" y="734" type="line"/>
			<point x="134" y="540"/>
			<point x="52" y="362"/>
			<point x="52" y="130" type="curve" smooth="yes"/>
			<point x="52" y="22"/>
			<point x="82" y="-96"/>
		</contour>
	</outline>
</glyph>
<glyph name="prime" format="1">
	<advance width="310"/>
	<outline>
		<contour>
			<point x="88" y="324" type="line"/>
			<point x="192" y="324" type="line"/>
			<point x="286" y="530" type="line"/>
			<point x="340" y="684" type="line"/>
			<point x="182" y="684" type="line"/>
		</contour>
	</outline>
</glyph>
<glyph name="ringhalfleftmod" format="1">
	<advance width="154"/>
	<outline>
		<contour>
			<point x="180" y="552" type="curve"/>
			<point x="192" y="610" type="line"/>
			<point x="160" y="610"/>
			<point x="146" y="626"/>
			<point x="146" y="648" type="curve" smooth="yes"/>
			<point x="146" y="674"/>
			<point x="166" y="698"/>
			<point x="210" y="700" type="curve"/>
			<point x="222" y="760" type="line"/>
			<point x="122" y="760"/>
			<point x="70" y="708"/>
			<point x="70" y="640" type="curve" smooth="yes"/>
			<point x="70" y="586"/>
			<point x="102" y="548"/>
		</contour>
	</outline>
</glyph>
<glyph name="s" format="1">
	<advance width="432"/>
	<outline>
		<contour>
			<point x="172" y="-12" type="curve" smooth="yes"/>
			<point x="298" y="-12"/>
			<point x="388" y="56"/>
			<point x="388" y="156" type="curve" smooth="yes"/>
			<point x="388" y="230"/>
			<point x="336" y="270"/>
			<point x="288" y="296" type="curve" smooth="yes"/>
			<point x="250" y="318"/>
			<point x="208" y="330"/>
			<point x="208" y="358" type="curve" smooth="yes"/>
			<point x="208" y="378"/>
			<point x="228" y="394"/>
			<point x="260" y="394" type="curve" smooth="yes"/>
			<point x="292" y="394"/>
			<point x="320" y="374"/>
			<point x="344" y="350" type="curve"/>
			<point x="430" y="432" type="line"/>
			<point x="388" y="476"/>
			<point x="332" y="512"/>
			<point x="260" y="512" type="curve" smooth="yes"/>
			<point x="148" y="512"/>
			<point x="58" y="440"/>
			<point x="58" y="344" type="curve" smooth="yes"/>
			<point x="58" y="278"/>
			<point x="105" y="232"/>
			<point x="154" y="204" type="curve" smooth="yes"/>
			<point x="206" y="174"/>
			<point x="238" y="164"/>
			<point x="238" y="138" type="curve" smooth="yes"/>
			<point x="238" y="118"/>
			<point x="212" y="104"/>
			<point x="182" y="104" type="curve" smooth="yes"/>
			<point x="152" y="104"/>
			<point x="118" y="120"/>
			<point x="82" y="162" type="curve"/>
			<point x="-10" y="86" type="line"/>
			<point x="34" y="20"/>
			<point x="114" y="-12"/>
		</contour>
		<contour>
			<point name="aboveLC" x="284" y="522" type="move"/>
		</contour>
		<contour>
			<point name="belowLC" x="184" y="-22" type="move"/>
		</contour>
		<contour>
			<point name="baseLC" x="170" y="0" type="move"/>
		</contour>
	</outline>
</glyph>
<glyph name="schwa.sups" format="1">
	<advance width="334"/>
	<outline>
		<contour>
			<point x="352" y="563" type="curve" smooth="yes"/>
			<point x="352" y="659"/>
			<point x="299" y="707"/>
			<point x="222" y="707" type="curve" smooth="yes"/>
			<point x="183" y="707"/>
			<point x="143" y="696"/>
			<point x="102" y="676" type="curve"/>
			<point x="134" y="607" type="line"/>
			<point x="158" y="618"/>
			<point x="171" y="625"/>
			<point x="190" y="625" type="curve" smooth="yes"/>
			<point x="223" y="625"/>
			<point x="246" y="611"/>
			<point x="248" y="563" type="curve"/>
			<point x="69" y="563" type="line"/>
			<point x="64" y="554"/>
			<point x="51" y="520"/>
			<point x="51" y="486" type="curve" smooth="yes"/>
			<point x="51" y="417"/>
			<point x="81" y="360"/>
			<point x="163" y="360" type="curve" smooth="yes"/>
			<point x="253" y="360"/>
			<point x="352" y="442"/>
		</contour>
		<contour>
			<point x="240" y="498" type="line"/>
			<point x="226" y="457"/>
			<point x="201" y="443"/>
			<point x="176" y="443" type="curve" smooth="yes"/>
			<point x="149" y="443"/>
			<point x="140" y="459"/>
			<point x="140" y="481" type="curve" smooth="yes"/>
			<point x="140" y="488"/>
			<point x="142" y="489"/>
			<point x="143" y="498" type="curve"/>
		</contour>
	</outline>
</glyph>
<glyph name="seven" format="1">
	<advance width="520"/>
	<outline>
		<contour>
			<point x="92" y="0" type="curve"/>
			<point x="256" y="0" type="line"/>
			<point x="294" y="174"/>
			<point x="346" y="362"/>
			<point x="534" y="534" type="curve"/>
			<point x="554" y="634" type="line"/>
			<point x="122" y="634" type="line"/>
			<point x="96" y="500" type="line"/>
			<point x="350" y="500" type="line"/>
			<point x="226" y="376"/>
			<point x="152" y="214"/>
		</contour>
	</outline>
</glyph>
<glyph name="trianglewhitedown" format="1">
	<advance width="870"/>
	<outline>
		<contour>
			<point x="840" y="720" type="line"/>
			<point x="60" y="720" type="line"/>
			<point x="60" y="718" type="line"/>
			<point x="448" y="-80" type="line"/>
			<point x="452" y="-80" type="line"/>
			<point x="840" y="718" type="line"/>
		</contour>
		<contour>
			<point x="655" y="610" type="line"/>
			<point x="450" y="165" type="line"/>
			<point x="245" y="610" type="line"/>
		</contour>
	</outline>
</glyph>
<glyph name="trianglewhiteleft" format="1">
	<advance width="870"/>
	<outline>
		<contour>
			<point x="840" y="720" type="line"/>
			<point x="838" y="720" type="line"/>
			<point x="40" y="332" type="line"/>
			<point x="40" y="328" type="line"/>
			<point x="838" y="-60" type="line"/>
			<point x="840" y="-60" type="line"/>
		</contour>
		<contour>
			<point x="730" y="535" type="line"/>
			<point x="730" y="125" type="line"/>
			<point x="280" y="330" type="line"/>
		</contour>
	</outline>
</glyph>
<glyph name="trianglewhiteright" format="1">
	<advance width="870"/>
	<outline>
		<contour>
			<point x="60" y="-60" type="line"/>
			<point x="62" y="-60" type="line"/>
			<point x="860" y="328" type="line"/>
			<point x="860" y="332" type="line"/>
			<point x="62" y="720" type="line"/>
			<point x="60" y="720" type="line"/>
		</contour>
		<contour>
			<point x="170" y="125" type="line"/>
			<point x="170" y="535" type="line"/>
			<point x="620" y="330" type="line"/>
		</contour>
	</outline>
</glyph>
<glyph name="u.sups" format="1">
	<advance width="370"/>
	<outline>
		<contour>
			<point x="400" y="700" type="line"/>
			<point x="288" y="700" type="line"/>
			<point x="247" y="490" type="line"/>
			<point x="225" y="466"/>
			<point x="211" y="454"/>
			<point x="193" y="454" type="curve" smooth="yes"/>
			<point x="177" y="454"/>
			<point x="168" y="463"/>
			<point x="168" y="481" type="curve" smooth="yes"/>
			<point x="168" y="488"/>
			<point x="169" y="497"/>
			<point x="172" y="509" type="curve" smooth="yes"/>
			<point x="210" y="700" type="line"/>
			<point x="98" y="700" type="line"/>
			<point x="57" y="495" type="line"/>
			<point x="55" y="481"/>
			<point x="51" y="464"/>
			<point x="51" y="449" type="curve" smooth="yes"/>
			<point x="51" y="392"/>
			<point x="77" y="360"/>
			<point x="132" y="360" type="curve" smooth="yes"/>
			<point x="175" y="360"/>
			<point x="210" y="384"/>
			<point x="240" y="412" type="curve"/>
			<point x="244" y="412" type="line"/>
			<point x="244" y="368" type="line"/>
			<point x="334" y="368" type="line"/>
		</contour>
	</outline>
</glyph>
<glyph name="v.sups" format="1">
	<advance width="350"/>
	<outline>
		<contour>
			<point x="114" y="368" type="line"/>
			<point x="241" y="368" type="line"/>
			<point x="407" y="700" type="line"/>
			<point x="299" y="700" type="line"/>
			<point x="236" y="550" type="line"/>
			<point x="194" y="448" type="line"/>
			<point x="191" y="448" type="line"/>
			<point x="190" y="550" type="line"/>
			<point x="184" y="700" type="line"/>
			<point x="73" y="700" type="line"/>
		</contour>
	</outline>
</glyph>
<glyph name="verticallinelowmod" format="1">
	<advance width="150"/>
	<outline>
		<contour>
			<point x="68" y="-62" type="line"/>
			<point x="-40" y="-62" type="line"/>
			<point x="-90" y="-270" type="line"/>
			<point x="38" y="-270" type="line"/>
		</contour>
	</outline>
</glyph>
<glyph name="verticallinemod" format="1">
	<advance width="150"/>
	<outline>
		<contour>
			<point x="76" y="522" type="line"/>
			<point x="184" y="522" type="line"/>
			<point x="234" y="730" type="line"/>
			<point x="106" y="730" type="line"/>
		</contour>
	</outline>
</glyph>
<glyph name="x.sups" format="1">
	<advance width="347"/>
	<outline>
		<contour>
			<point x="1" y="368" type="line"/>
			<point x="123" y="368" type="line"/>
			<point x="158" y="420" type="line"/>
			<point x="188" y="469" type="line"/>
			<point x="191" y="469" type="line"/>
			<point x="208" y="417" type="line"/>
			<point x="225" y="368" type="line"/>
			<point x="338" y="368" type="line"/>
			<point x="278" y="521" type="line"/>
			<point x="413" y="700" type="line"/>
			<point x="291" y="700" type="line"/>
			<point x="262" y="646" type="line"/>
			<point x="235" y="598" type="line"/>
			<point x="232" y="598" type="line"/>
			<point x="218" y="650" type="line"/>
			<point x="202" y="700" type="line"/>
			<point x="89" y="700" type="line"/>
			<point x="145" y="545" type="line"/>
		</contour>
	</outline>
</glyph>
<glyph name="z" format="1">
	<advance width="456"/>
	<outline>
		<contour>
			<point x="-10" y="0" type="line"/>
			<point x="380" y="0" type="line"/>
			<point x="404" y="124" type="line"/>
			<point x="214" y="124" type="line"/>
			<point x="454" y="408" type="line"/>
			<point x="472" y="500" type="line"/>
			<point x="108" y="500" type="line"/>
			<point x="84" y="376" type="line"/>
			<point x="248" y="376" type="line"/>
			<point x="8" y="90" type="line"/>
		</contour>
		<contour>
			<point name="aboveLC" x="296" y="522" type="move"/>
		</contour>
		<contour>
			<point name="belowLC" x="190" y="-22" type="move"/>
		</contour>
	</outline>
</glyph>
